#!OML:ASF H:\Terrain\Patient Classification 1\Takeo\Monday\TakeoMonday.ASF
:FULLY-SPECIFIED
:DEGREES
141
root 18.1235 17.2932 -2.54006 -64.0328 -83.3381 61.2219
lowerback 7.42856 -4.00115 -2.08012
upperback 1.86712 -5.48798 2.49012
thorax -1.77742 -2.76792 4.20446
lowerneck -10.8719 7.39793 0.906014
upperneck -5.83381 9.3783 -5.25199
head 0.282473 4.48942 -1.44262
rclavicle -1.55052e-014 -2.54444e-014
rhumerus -10.6704 -26.1174 -22.6537
rradius 62.3997
rwrist -19.898
rhand -40.4504 30.3675
rfingers 7.12502
rthumb -13.402 0.818591
lclavicle -1.55052e-014 -2.54444e-014
lhumerus -29.6338 11.8167 66.1032
lradius 88.072
lwrist 25.8087
lhand -28.9881 15.8167
lfingers 7.12502
lthumb -2.34021 45.7836
rfemur -9.97038 -0.279196 10.4179
rtibia 37.8387
rfoot -21.8661 -11.9156
rtoes -9.44954
lfemur -5.42315 21.2975 -12.8017
ltibia 28.3434
lfoot -14.0931 22.6563
ltoes 8.5799
142
root 18.1167 17.2955 -2.53843 -66.2022 -82.7007 63.3473
lowerback 7.31798 -4.0126 -2.85895
upperback 1.95604 -5.56208 2.39159
thorax -1.55286 -2.81055 4.52585
lowerneck -10.9956 7.35749 0.740812
upperneck -5.86243 9.33793 -5.07712
head 0.273661 4.47099 -1.35937
rclavicle 1.98785e-014 -1.74931e-014
rhumerus -10.3395 -26.5016 -23.1309
rradius 62.1107
rwrist -20.1076
rhand -40.4258 30.6509
rfingers 7.12502
rthumb -13.3782 1.10045
lclavicle 1.98785e-014 -1.74931e-014
lhumerus -29.257 11.6662 66.0827
lradius 88.1541
lwrist 25.6954
lhand -29.189 15.6949
lfingers 7.12502
lthumb -2.53423 45.6596
rfemur -9.87373 -0.487944 9.5821
rtibia 37.871
rfoot -21.8774 -11.7108
rtoes -9.9377
lfemur -5.17436 21.2153 -13.5705
ltibia 28.0359
lfoot -13.9894 22.7217
ltoes 10.218
143
root 18.1125 17.2986 -2.53362 -66.5828 -82.7589 63.642
lowerback 7.43015 -4.00693 -2.77643
upperback 1.91455 -5.54954 2.44365
thorax -1.66179 -2.80131 4.54515
lowerneck -11.1007 7.28783 0.806247
upperneck -5.62155 9.25215 -5.208
head 0.376199 4.42243 -1.40573
rclavicle -3.55825e-014 -9.54166e-015
rhumerus -10.2312 -26.6112 -23.478
rradius 61.7948
rwrist -20.3627
rhand -40.4809 30.1713
rfingers 7.12502
rthumb -13.4313 0.624303
lclavicle -3.55825e-014 -9.54166e-015
lhumerus -29.0779 11.3937 65.9207
lradius 88.2296
lwrist 25.6768
lhand -28.9366 15.1758
lfingers 7.12502
lthumb -2.29045 45.1432
rfemur -9.78282 -0.521736 9.58608
rtibia 37.9436
rfoot -21.7182 -11.7866
rtoes -11.3198
lfemur -4.8518 21.2056 -13.5056
ltibia 27.6601
lfoot -13.9107 22.6936
ltoes 11.091
144
root 18.1105 17.3036 -2.52094 -67.3763 -82.6899 64.2642
lowerback 7.70739 -4.01195 -2.77628
upperback 1.82717 -5.5595 2.46612
thorax -1.90253 -2.79865 4.59832
lowerneck -11.066 7.25178 0.550085
upperneck -5.3798 9.25386 -4.93634
head 0.418635 4.43235 -1.27578
rclavicle 2.68359e-014 3.65764e-014
rhumerus -10.4242 -26.3958 -23.5296
rradius 61.7962
rwrist -20.6461
rhand -40.8108 29.273
rfingers 7.12502
rthumb -13.7493 -0.252738
lclavicle 2.68359e-014 3.65764e-014
lhumerus -29.0065 11.2577 65.755
lradius 88.2776
lwrist 25.6781
lhand -28.7589 14.8965
lfingers 7.12502
lthumb -2.1189 44.8657
rfemur -9.59949 -0.605553 9.40565
rtibia 37.9905
rfoot -21.7751 -11.6153
rtoes -11.5266
lfemur -4.5074 21.0639 -13.6145
ltibia 27.4056
lfoot -13.8546 22.9864
ltoes 9.38731
145
root 18.115 17.3053 -2.51224 -69.1231 -82.1568 66.1116
lowerback 7.7247 -4.01335 -3.28859
upperback 1.7033 -5.59977 2.31899
thorax -2.0019 -2.80966 4.74193
lowerneck -11.0596 7.24538 0.545387
upperneck -5.14862 9.265 -4.7891
head 0.482921 4.44055 -1.22437
rclavicle 7.53394e-014 -2.38542e-014
rhumerus -10.7913 -26.1459 -23.6821
rradius 62.0385
rwrist -21.0333
rhand -40.7389 28.6698
rfingers 7.12502
rthumb -13.68 -0.860617
lclavicle 7.53394e-014 -2.38542e-014
lhumerus -28.8518 11.1949 65.5448
lradius 88.3091
lwrist 25.6735
lhand -28.8529 15.1071
lfingers 7.12502
lthumb -2.20963 45.0754
rfemur -9.7402 -0.791497 8.67633
rtibia 37.9641
rfoot -22.1044 -11.1431
rtoes -9.95591
lfemur -4.61699 20.9414 -14.4044
ltibia 27.3537
lfoot -13.8937 23.3884
ltoes 7.66125
146
root 18.1232 17.3131 -2.50884 -68.4404 -82.1582 65.8004
lowerback 7.4432 -4.01013 -3.15111
upperback 1.56803 -5.57388 2.27268
thorax -2.00663 -2.79217 4.59802
lowerneck -10.911 7.26536 1.00195
upperneck -5.14551 9.24554 -5.03244
head 0.497095 4.42417 -1.37998
rclavicle -7.49418e-014 4.77083e-015
rhumerus -11.1773 -26.5384 -24.1913
rradius 62.1413
rwrist -20.922
rhand -40.7252 28.3556
rfingers 7.12502
rthumb -13.6668 -1.17569
lclavicle -7.49418e-014 4.77083e-015
lhumerus -28.4881 10.879 65.2735
lradius 88.3244
lwrist 25.6344
lhand -28.6535 15.0552
lfingers 7.12502
lthumb -2.0171 45.0254
rfemur -10.1597 -0.956388 8.68907
rtibia 37.878
rfoot -22.0795 -11.0868
rtoes -9.47907
lfemur -5.19017 20.9119 -14.5971
ltibia 27.3972
lfoot -13.5633 23.6405
ltoes 6.41368
147
root 18.1247 17.3277 -2.50194 -66.4041 -82.4376 63.8736
lowerback 7.30155 -3.99861 -2.64853
upperback 1.57043 -5.51672 2.3001
thorax -1.97644 -2.76629 4.33051
lowerneck -10.7349 7.25015 1.32715
upperneck -5.33188 9.18294 -5.05947
head 0.42556 4.39217 -1.45416
rclavicle 3.73715e-014 -3.97569e-014
rhumerus -11.0402 -27.3451 -24.8529
rradius 61.8289
rwrist -20.4311
rhand -41.0065 28.0786
rfingers 7.12502
rthumb -13.9379 -1.43424
lclavicle 3.73715e-014 -3.97569e-014
lhumerus -27.9828 10.4653 65.0709
lradius 88.3471
lwrist 25.8194
lhand -28.2642 14.2977
lfingers 7.12502
lthumb -1.64109 44.2711
rfemur -10.1998 -1.01411 9.09242
rtibia 37.7538
rfoot -21.9157 -11.2989
rtoes -9.3294
lfemur -5.52271 20.7227 -14.2938
ltibia 27.5301
lfoot -13.1042 23.8595
ltoes 4.84531
148
root 18.122 17.3316 -2.49321 -65.5679 -82.5752 62.9866
lowerback 7.2712 -3.98475 -2.40918
upperback 1.6291 -5.48129 2.32232
thorax -1.92258 -2.75236 4.21225
lowerneck -10.6605 7.24827 1.12718
upperneck -5.50109 9.19674 -4.56188
head 0.321184 4.41078 -1.27211
rclavicle -1.05356e-014 -2.38542e-014
rhumerus -10.5149 -27.7015 -25.3447
rradius 61.3553
rwrist -20.5446
rhand -41.2088 27.6818
rfingers 7.12502
rthumb -14.1328 -1.81749
lclavicle -1.05356e-014 -2.38542e-014
lhumerus -27.6474 10.1655 64.8893
lradius 88.4708
lwrist 26.1153
lhand -28.1879 13.9134
lfingers 7.12502
lthumb -1.56742 43.8874
rfemur -10.0475 -0.948105 9.2857
rtibia 37.5959
rfoot -21.9977 -11.4362
rtoes -8.55482
lfemur -5.60358 20.5835 -14.1073
ltibia 27.7799
lfoot -13.6284 23.7642
ltoes 5.89211
149
root 18.1181 17.3286 -2.48527 -65.3274 -82.7187 62.8582
lowerback 7.10378 -3.97471 -2.3417
upperback 1.58489 -5.45792 2.46042
thorax -1.87017 -2.74199 4.30378
lowerneck -10.4655 7.35637 1.45435
upperneck -5.58765 9.30134 -5.04733
head 0.309378 4.45533 -1.48062
rclavicle -4.67144e-014 1.59028e-015
rhumerus -10.0924 -27.876 -25.7229
rradius 61.011
rwrist -20.8594
rhand -41.3954 27.6657
rfingers 7.12502
rthumb -14.3127 -1.82103
lclavicle -4.67144e-014 1.59028e-015
lhumerus -27.5751 10.1085 64.8123
lradius 88.6499
lwrist 25.9452
lhand -28.3498 13.9345
lfingers 7.12502
lthumb -1.72372 43.9073
rfemur -10.1005 -0.944613 9.42781
rtibia 37.442
rfoot -22.0023 -11.518
rtoes -8.74197
lfemur -5.83854 20.7735 -14.0092
ltibia 28.0526
lfoot -13.9074 23.5712
ltoes 6.89855
150
root 18.1139 17.3267 -2.48079 -65.8099 -82.8738 63.4472
lowerback 6.94276 -3.89208 -2.43797
upperback 1.54349 -5.34971 2.6809
thorax -1.80299 -2.68999 4.56649
lowerneck -10.3441 7.40097 2.08341
upperneck -5.55571 9.29158 -6.12178
head 0.394984 4.42876 -1.92815
rclavicle 6.75868e-015 -2.38542e-014
rhumerus -9.90001 -28.0563 -25.9361
rradius 60.9275
rwrist -21.1219
rhand -41.6851 27.2713
rfingers 7.12502
rthumb -14.5918 -2.19536
lclavicle 6.75868e-015 -2.38542e-014
lhumerus -27.4416 10.1574 64.9089
lradius 88.7783
lwrist 25.4258
lhand -28.1789 13.7956
lfingers 7.12502
lthumb -1.55874 43.7697
rfemur -10.1838 -0.767447 9.5211
rtibia 37.335
rfoot -21.8183 -11.5503
rtoes -9.68316
lfemur -6.07957 21.2298 -13.9184
ltibia 28.3091
lfoot -13.1369 23.635
ltoes 4.96971
151
root 18.1085 17.3295 -2.47389 -65.3659 -82.9102 62.9858
lowerback 6.76438 -3.89688 -2.36245
upperback 1.64836 -5.35153 2.69038
thorax -1.60146 -2.69831 4.51367
lowerneck -10.4313 7.4073 2.37175
upperneck -5.55018 9.26544 -6.4217
head 0.443232 4.40458 -2.07096
rclavicle -5.52621e-014 -1.11319e-014
rhumerus -9.79027 -28.2334 -26.4265
rradius 61.1113
rwrist -21.4321
rhand -42.0476 26.4781
rfingers 7.12502
rthumb -14.941 -2.96297
lclavicle -5.52621e-014 -1.11319e-014
lhumerus -27.1126 10.068 64.6867
lradius 88.869
lwrist 25.2325
lhand -27.8671 13.4942
lfingers 7.12502
lthumb -1.2576 43.4702
rfemur -10.0973 -0.655021 9.53326
rtibia 37.2684
rfoot -21.6296 -11.6701
rtoes -11.1919
lfemur -6.19741 21.3829 -13.8731
ltibia 28.5438
lfoot -12.7563 23.6597
ltoes 3.49338
152
root 18.105 17.3355 -2.45873 -63.226 -82.7361 60.7998
lowerback 6.61777 -4.02021 -2.06711
upperback 1.78046 -5.49892 2.47628
thorax -1.41935 -2.77696 4.11804
lowerneck -10.4554 7.506 2.47035
upperneck -5.71028 9.37726 -6.16263
head 0.390409 4.46169 -2.00165
rclavicle 5.48646e-014 9.54166e-015
rhumerus -9.74818 -28.5272 -27.1658
rradius 61.2661
rwrist -21.7911
rhand -42.5182 26.6215
rfingers 7.12502
rthumb -15.3944 -2.78532
lclavicle 5.48646e-014 9.54166e-015
lhumerus -26.7192 9.80286 64.1786
lradius 88.9582
lwrist 25.2685
lhand -27.9286 13.4162
lfingers 7.12502
lthumb -1.31693 43.3919
rfemur -9.92507 -1.01312 9.41903
rtibia 37.2157
rfoot -21.5607 -11.789
rtoes -12.3007
lfemur -6.30879 21.0643 -14.0152
ltibia 28.7378
lfoot -13.0812 23.6455
ltoes 3.20941
